<svg xmlns="http://www.w3.org/2000/svg" width="25.333" height="24.732" viewBox="0 0 25.333 24.732">
  <g id="Icon_feather-shopping-cart" data-name="Icon feather-shopping-cart" transform="translate(-0.5 -0.5)">
    <path id="Trazado_23" data-name="Trazado 23" d="M29.541,30.52a.52.52,0,1,1-.52-.52A.52.52,0,0,1,29.541,30.52Z" transform="translate(-7.37 -7.809)" fill="none" stroke="#000" stroke-linecap="round" stroke-linejoin="round" stroke-width="4"/>
    <path id="Trazado_25" data-name="Trazado 25" d="M29.541,30.52a.52.52,0,1,1-.52-.52A.52.52,0,0,1,29.541,30.52Z" transform="translate(-19.37 -7.809)" fill="none" stroke="#000" stroke-linecap="round" stroke-linejoin="round" stroke-width="4"/>
    <path id="Trazado_24" data-name="Trazado 24" d="M1.5,1.5H5.742L8.585,15.7a2.121,2.121,0,0,0,2.121,1.708H21.014A2.121,2.121,0,0,0,23.136,15.7l1.7-8.9H6.8" fill="none" stroke="#000" stroke-linecap="round" stroke-linejoin="round" stroke-width="2"/>
  </g>
</svg>
