<svg xmlns="http://www.w3.org/2000/svg" width="23.823" height="22.906" viewBox="0 0 23.823 22.906">
  <path id="Icon_ionic-ios-heart-empty" data-name="Icon ionic-ios-heart-empty" d="M20.784,3.938h-.057a6.516,6.516,0,0,0-5.44,2.978,6.516,6.516,0,0,0-5.44-2.978H9.789a6.474,6.474,0,0,0-6.414,6.471,13.94,13.94,0,0,0,2.737,7.6,47.97,47.97,0,0,0,9.174,8.836,47.97,47.97,0,0,0,9.174-8.836,13.94,13.94,0,0,0,2.737-7.6A6.474,6.474,0,0,0,20.784,3.938Zm2.382,13.125a43.923,43.923,0,0,1-7.88,7.765,43.988,43.988,0,0,1-7.88-7.771,12.354,12.354,0,0,1-2.428-6.649A4.859,4.859,0,0,1,9.8,5.547h.052a4.8,4.8,0,0,1,2.354.618A5,5,0,0,1,13.946,7.8a1.609,1.609,0,0,0,2.691,0,5.054,5.054,0,0,1,1.741-1.632,4.8,4.8,0,0,1,2.354-.618h.052a4.859,4.859,0,0,1,4.822,4.862A12.51,12.51,0,0,1,23.166,17.063Z" transform="translate(-3.375 -3.938)"/>
</svg>
