<?xml version="1.0" encoding="utf-8"?>
<!-- Generator: Adobe Illustrator 24.3.0, SVG Export Plug-In . SVG Version: 6.00 Build 0)  -->
<svg version="1.1" id="Capa_1" xmlns="http://www.w3.org/2000/svg" xmlns:xlink="http://www.w3.org/1999/xlink" x="0px" y="0px"
	 viewBox="0 0 1030.6 338.3" style="enable-background:new 0 0 1030.6 338.3;" xml:space="preserve">
<style type="text/css">
	.st0{font-family:'MarkOffcPro';}
	.st1{font-size:163px;}
</style>
<g>
	<g>
		<g>
			<g>
				<path d="M181.6,324.7c-0.4,0-0.8-0.1-1.2-0.2l-142.9-69c-0.9-0.4-1.5-1.4-1.5-2.5V85.4c0-1,0.6-2,1.5-2.5l142.9-69
					c0.4-0.2,0.8-0.2,1.2-0.2s0.8,0.1,1.2,0.2l142.9,69c0.9,0.4,1.5,1.4,1.5,2.5v167.5c0,1-0.6,2-1.5,2.5l-142.9,69
					C182.4,324.6,182,324.7,181.6,324.7z M196.4,144.5c1,0,2,0.6,2.5,1.5c0.3,0.7,0.4,1.4,0.1,2.1s-0.7,1.2-1.4,1.6l-13.2,6.4v161.4
					l137.4-66.3V89.8l-104.5,50.4c-0.4,0.2-0.8,0.2-1.2,0.2c-1,0-2-0.6-2.5-1.5c-0.3-0.7-0.4-1.4-0.1-2.1s0.7-1.2,1.4-1.6
					l103.3-49.9l-50-24.2l-139.7,67.5l-0.2,0.4l-0.4,0.6v55.9c0,1-0.5,1.8-1.3,2.3c-0.4,0.2-0.9,0.4-1.5,0.4c-0.4,0-0.8-0.1-1.2-0.2
					l-34.5-16.7c-0.9-0.4-1.5-1.4-1.5-2.5V112L41.7,89.7v161.4l137.4,66.3V156.2l-33-15.9c-1.4-0.7-2-2.3-1.3-3.7
					c0.5-1,1.4-1.5,2.5-1.5c0.4,0,0.8,0.1,1.2,0.2l33.3,16.1l13.6-6.6C195.6,144.6,196,144.5,196.4,144.5z M93.2,167.2l29,14v-52.4
					l-29-14V167.2z M93.9,109l31.3,15.1l136.3-65.8l-31.3-15.1L93.9,109z M45.1,85.4l42.8,20.7l0.9-0.7c0.2-0.1,0.3-0.2,0.5-0.3
					l134.8-65l-42.5-20.6L45.1,85.4z"/>
			</g>
		</g>
		<g>
			<path d="M223.8,265.3c-5.5,0-10.6-2.2-14.4-6.1c-3.8-3.9-6-9.2-6-14.6c0-5.5,2.1-11.5,6-15.4s9-5.9,14.4-5.9l0,0
				c2,0,3.9,0.7,5.4,2.1V174c0-1.2,0.9-2.2,2-2.5l58.4-28.3c2.6-1.3,3,1.5,3,3c0,1.4,0,74.6,0,74.6c0,11.3-9.2,20.4-20.4,20.4l0,0
				c-11.3,0-20.4-9.2-20.4-20.4c0-5.5,2.1-10.6,6-14.4c3.9-3.9,9-6,14.4-6c2,0,3.8,0.2,5.4,0.7v-21l-33.4,16.6v46.7
				c0,5.5-2.1,11.8-6,15.7C234.4,263.1,229.3,265.3,223.8,265.3L223.8,265.3z M223.8,229.4L223.8,229.4c-4.1,0-8,1.5-10.9,4.4
				s-4.5,6.7-4.5,10.8c0,4.1,1.6,7.7,4.5,10.6c2.9,2.9,6.8,4.7,10.9,4.7l0,0c4.1,0,8-1.5,10.9-4.4c2.9-2.9,4.5-14.1,4.5-18.3v-42.4
				c0-1.2,0.8-2.2,2-2.5l38.4-18.8c1.7-0.7,3-0.1,3,2.6v29.2c0,1-0.7,2-1.7,2.3c-1,0.4-2.2,0-2.8-0.9c-0.6-0.8-2.9-1.7-5.9-1.7
				c-4.1,0-8,1.6-10.9,4.5s-4.5,6.8-4.5,10.9c0,8.5,6.9,15.4,15.4,15.4l0,0c8.5,0,15.4-6.9,15.4-15.4v-71.1l-53.5,26.3v57.5
				c0,1-0.2,2-1.7,2.1c-1.7,0-2.7-3.6-3.3-4.3C228.8,230.7,226.9,229.4,223.8,229.4L223.8,229.4z"/>
		</g>
	</g>
	<text transform="matrix(1 0 0 1 396.232 153.5025)" class="st0 st1">cajita </text>
	<text transform="matrix(1 0 0 1 396.232 284.5026)" class="st0 st1">musical</text>
</g>
</svg>
