<svg id="Grupo_22" data-name="Grupo 22" xmlns="http://www.w3.org/2000/svg" width="54.501" height="58.207" viewBox="0 0 54.501 58.207">
  <g id="Grupo_2" data-name="Grupo 2" transform="translate(0 0)">
    <g id="Grupo_1" data-name="Grupo 1">
      <path id="Trazado_1" data-name="Trazado 1" d="M137.651,158.707a.939.939,0,0,1-.225-.037l-26.745-12.914a.508.508,0,0,1-.281-.468V113.919a.551.551,0,0,1,.281-.468l26.745-12.914a.475.475,0,0,1,.225-.037.939.939,0,0,1,.225.037l26.745,12.914a.508.508,0,0,1,.281.468v31.349a.551.551,0,0,1-.281.468l-26.745,12.914A.5.5,0,0,1,137.651,158.707Zm2.77-33.726a.551.551,0,0,1,.468.281.481.481,0,0,1,.019.393.583.583,0,0,1-.262.3l-2.471,1.2V157.36l25.716-12.409V114.743l-19.558,9.433a.475.475,0,0,1-.225.037.551.551,0,0,1-.468-.281.481.481,0,0,1-.019-.393.583.583,0,0,1,.262-.3l19.334-9.339-9.358-4.529L127.712,122l-.037.075-.075.112v10.462a.5.5,0,0,1-.243.43.62.62,0,0,1-.281.075.939.939,0,0,1-.225-.037L120.394,130a.508.508,0,0,1-.281-.468V118.9l-8.647-4.174v30.208l25.716,12.409V127.17l-6.176-2.976a.511.511,0,0,1-.243-.692.5.5,0,0,1,.468-.281.939.939,0,0,1,.225.037l6.232,3.013,2.545-1.235A.279.279,0,0,1,140.421,124.981Zm-19.315,4.249,5.428,2.62v-9.807l-5.428-2.62Zm.131-10.893,5.858,2.826,25.51-12.315-5.858-2.826Zm-9.133-4.417,8.01,3.874.168-.131c.037-.019.056-.037.094-.056L145.6,105.441l-7.954-3.856Z" transform="translate(-110.4 -100.5)" fill="#fff"/>
    </g>
  </g>
  <g id="Grupo_3" data-name="Grupo 3" transform="translate(31.331 24.175)">
    <path id="Trazado_2" data-name="Trazado 2" d="M281.618,252.58a3.736,3.736,0,0,1-2.7-1.142,3.949,3.949,0,0,1-1.123-2.733,4.191,4.191,0,0,1,1.123-2.882,3.763,3.763,0,0,1,2.7-1.1h0a1.461,1.461,0,0,1,1.011.393v-9.62a.5.5,0,0,1,.374-.468l10.93-5.3c.487-.243.561.281.561.561v13.962a3.822,3.822,0,0,1-3.818,3.818h0a3.822,3.822,0,0,1-3.818-3.818,3.718,3.718,0,0,1,1.123-2.7,3.781,3.781,0,0,1,2.7-1.123,3.392,3.392,0,0,1,1.011.131v-3.93l-6.251,3.107v8.74a4.33,4.33,0,0,1-1.123,2.938,3.681,3.681,0,0,1-2.7,1.16Zm0-6.719h0a2.844,2.844,0,0,0-2.882,2.845,2.746,2.746,0,0,0,.842,1.984,2.911,2.911,0,0,0,2.04.88h0a2.857,2.857,0,0,0,2.04-.824c.543-.543.842-2.639.842-3.425v-7.936a.479.479,0,0,1,.374-.468l7.187-3.519c.318-.131.561-.019.561.487v5.465a.461.461,0,0,1-.318.43.445.445,0,0,1-.524-.168,1.592,1.592,0,0,0-1.1-.318,2.882,2.882,0,1,0,0,5.765h0a2.884,2.884,0,0,0,2.882-2.882V230.869l-10.013,4.922v10.762c0,.187-.037.374-.318.393-.318,0-.505-.674-.618-.8a1.769,1.769,0,0,0-.992-.281Z" transform="translate(-277.8 -229.665)" fill="#fff"/>
  </g>
</svg>
