<?xml version="1.0" encoding="utf-8"?>
<!-- Generator: Adobe Illustrator 24.3.0, SVG Export Plug-In . SVG Version: 6.00 Build 0)  -->
<svg version="1.1" id="Grupo_4" xmlns="http://www.w3.org/2000/svg" xmlns:xlink="http://www.w3.org/1999/xlink" x="0px" y="0px"
	 viewBox="0 0 54.5 58.2" style="enable-background:new 0 0 54.5 58.2;" xml:space="preserve">
<g id="Grupo_2" transform="translate(0 0)">
	<g id="Grupo_1">
		<path id="Trazado_1" d="M27.3,58.2c-0.1,0-0.2,0-0.2,0L0.3,45.3C0.1,45.2,0,45,0,44.8V13.4C0,13.2,0.1,13,0.3,13L27,0
			c0.1,0,0.1,0,0.2,0c0.1,0,0.2,0,0.2,0L54.2,13c0.2,0.1,0.3,0.3,0.3,0.5v31.3c0,0.2-0.1,0.4-0.3,0.5L27.5,58.2
			C27.4,58.2,27.3,58.2,27.3,58.2z M30,24.5c0.2,0,0.4,0.1,0.5,0.3c0.1,0.1,0.1,0.3,0,0.4c0,0.1-0.1,0.2-0.3,0.3l-2.5,1.2v30.2
			l25.7-12.4V14.2l-19.6,9.4c-0.1,0-0.1,0-0.2,0c-0.2,0-0.4-0.1-0.5-0.3c-0.1-0.1-0.1-0.3,0-0.4c0-0.1,0.1-0.2,0.3-0.3l19.3-9.3
			l-9.4-4.5L17.3,21.5l0,0.1l-0.1,0.1v10.5c0,0.2-0.1,0.3-0.2,0.4c-0.1,0-0.2,0.1-0.3,0.1c-0.1,0-0.2,0-0.2,0L10,29.5
			c-0.2-0.1-0.3-0.3-0.3-0.5V18.4l-8.6-4.2v30.2l25.7,12.4V26.7l-6.2-3c-0.3-0.1-0.4-0.4-0.2-0.7c0,0,0,0,0,0
			c0.1-0.2,0.3-0.3,0.5-0.3c0.1,0,0.2,0,0.2,0l6.2,3l2.5-1.2C29.9,24.5,30,24.5,30,24.5z M10.7,28.7l5.4,2.6v-9.8l-5.4-2.6V28.7z
			 M10.8,17.8l5.9,2.8L42.2,8.3l-5.9-2.8L10.8,17.8z M1.7,13.4l8,3.9l0.2-0.1c0,0,0.1,0,0.1-0.1L35.2,4.9l-8-3.9L1.7,13.4z"/>
	</g>
</g>
<g id="Grupo_3" transform="translate(31.331 24.175)">
	<path id="Trazado_2" d="M3.8,22.9c-1,0-2-0.4-2.7-1.1C0.4,21,0,20.1,0,19c0-1.1,0.4-2.1,1.1-2.9c0.7-0.7,1.7-1.1,2.7-1.1l0,0
		c0.4,0,0.7,0.1,1,0.4V5.8c0-0.2,0.2-0.4,0.4-0.5l10.9-5.3c0.5-0.2,0.6,0.3,0.6,0.6v14c0,2.1-1.7,3.8-3.8,3.8l0,0
		c-2.1,0-3.8-1.7-3.8-3.8c0-1,0.4-2,1.1-2.7c0.7-0.7,1.7-1.1,2.7-1.1c0.3,0,0.7,0,1,0.1V7l-6.3,3.1v8.7c0,1.1-0.4,2.1-1.1,2.9
		C5.8,22.5,4.8,22.9,3.8,22.9L3.8,22.9z M3.8,16.2L3.8,16.2c-1.6,0-2.9,1.2-2.9,2.8c0,0,0,0,0,0c0,0.7,0.3,1.5,0.8,2
		c0.5,0.6,1.3,0.9,2,0.9l0,0c0.8,0,1.5-0.3,2-0.8c0.5-0.5,0.8-2.6,0.8-3.4V9.7c0-0.2,0.2-0.4,0.4-0.5l7.2-3.5c0.3-0.1,0.6,0,0.6,0.5
		v5.5c0,0.2-0.1,0.4-0.3,0.4c-0.2,0.1-0.4,0-0.5-0.2c-0.3-0.2-0.7-0.4-1.1-0.3c-1.6,0-2.9,1.3-2.9,2.9c0,1.6,1.3,2.9,2.9,2.9l0,0
		c1.6,0,2.9-1.3,2.9-2.9V1.2l-10,4.9v10.8c0,0.2,0,0.4-0.3,0.4c-0.3,0-0.5-0.7-0.6-0.8C4.5,16.3,4.2,16.2,3.8,16.2L3.8,16.2z"/>
</g>
</svg>
